<?xml version="1.0" standalone="no"?>
<!DOCTYPE svg PUBLIC "-//W3C//DTD SVG 20010904//EN"
 "http://www.w3.org/TR/2001/REC-SVG-20010904/DTD/svg10.dtd">
<svg version="1.0" xmlns="http://www.w3.org/2000/svg"
 width="4500.000000pt" height="1121.000000pt" viewBox="0 0 4500.000000 1121.000000"
 preserveAspectRatio="xMidYMid meet">
<metadata>
Created by potrace 1.16, written by Peter Selinger 2001-2019
</metadata>
<g transform="translate(0.000000,1121.000000) scale(0.100000,-0.100000)"
fill="#000000" stroke="none">
<path d="M6005 8240 c-679 -61 -1251 -309 -1670 -725 -415 -411 -658 -971
-716 -1644 -16 -196 -6 -582 20 -761 86 -585 300 -1048 656 -1419 398 -415
909 -658 1570 -747 185 -25 647 -25 830 0 365 50 628 128 920 271 636 312
1082 869 1260 1575 28 111 65 311 65 352 l0 28 -370 0 c-288 0 -371 -3 -374
-12 -2 -7 -15 -74 -29 -148 -36 -186 -85 -329 -172 -505 -166 -333 -399 -577
-726 -758 -174 -96 -447 -182 -676 -212 -138 -19 -428 -21 -558 -5 -540 65
-967 300 -1266 695 -149 196 -276 475 -339 745 -127 548 -70 1191 147 1650
238 505 671 851 1223 979 228 53 566 68 800 36 735 -102 1281 -544 1508 -1221
27 -81 76 -281 84 -344 l3 -25 373 -3 372 -2 0 29 c0 53 -49 295 -84 417 -235
818 -853 1416 -1705 1650 -140 38 -336 77 -481 94 -126 15 -540 21 -665 10z"/>
<path d="M11755 8244 c-291 -28 -409 -47 -595 -94 -938 -238 -1590 -880 -1820
-1790 -69 -273 -96 -539 -87 -869 9 -343 48 -583 142 -869 118 -356 295 -654
543 -913 471 -492 1140 -762 1947 -786 858 -25 1609 241 2118 751 410 409 647
950 708 1609 15 166 6 604 -15 747 -67 444 -195 793 -404 1106 -412 614 -1047
981 -1883 1089 -117 15 -561 28 -654 19z m500 -605 c274 -29 550 -116 771
-241 523 -299 838 -807 925 -1493 17 -129 17 -511 0 -640 -126 -990 -741
-1620 -1696 -1735 -136 -17 -420 -14 -570 5 -723 93 -1279 521 -1528 1175
-105 275 -150 540 -150 875 0 206 10 325 44 503 145 756 639 1302 1351 1491
266 71 559 92 853 60z"/>
<path d="M33380 8244 c-365 -32 -666 -97 -928 -200 -766 -303 -1278 -883
-1482 -1680 -72 -279 -84 -392 -85 -774 0 -358 7 -442 60 -685 89 -409 265
-781 507 -1070 416 -498 998 -796 1743 -891 193 -25 653 -25 840 -1 545 73
980 239 1354 520 117 87 310 273 398 382 217 269 387 619 477 981 93 374 112
840 50 1259 -90 612 -375 1150 -807 1521 -397 341 -889 548 -1477 620 -118 14
-552 26 -650 18z m433 -599 c228 -13 530 -92 738 -194 478 -233 814 -651 958
-1191 114 -428 114 -922 0 -1350 -243 -912 -1020 -1443 -2034 -1389 -908 48
-1584 612 -1779 1482 -50 221 -59 314 -59 582 0 268 9 361 59 582 194 866 867
1430 1769 1482 72 5 157 7 190 5 33 -2 104 -6 158 -9z"/>
<path d="M29790 5975 l0 -2195 370 0 370 0 0 2195 0 2195 -370 0 -370 0 0
-2195z"/>
<path d="M15110 5585 l0 -2565 375 0 375 0 0 1170 0 1170 1625 0 1625 0 0
-1170 0 -1170 370 0 370 0 0 2565 0 2565 -370 0 -370 0 0 -1105 0 -1105 -1625
0 -1625 0 0 1105 0 1105 -375 0 -375 0 0 -2565z"/>
<path d="M20340 5585 l0 -2565 2100 0 2100 0 0 290 0 290 -1725 0 -1725 0 0
880 0 880 1240 0 1240 0 0 290 0 290 -1240 0 -1240 0 0 809 0 808 3635 8
c2000 4 3638 5 3641 2 3 -3 -798 -913 -1780 -2023 l-1786 -2019 0 -252 0 -253
2870 0 2870 0 0 290 0 290 -2369 2 -2368 3 1783 2015 1783 2015 1 258 0 257
-4515 0 -4515 0 0 -2565z"/>
<path d="M36740 5585 l0 -2565 335 0 335 0 0 438 c0 240 -5 1188 -11 2105 -6
918 -9 1670 -7 1672 2 2 338 -452 748 -1008 409 -557 1111 -1506 1560 -2109
l815 -1098 437 0 438 0 0 2565 0 2565 -337 0 -336 0 6 -1632 c4 -898 10 -1853
13 -2123 l7 -490 -741 1010 c-408 556 -1114 1511 -1569 2123 l-827 1112 -433
0 -433 0 0 -2565z"/>
</g>
</svg>
