<?xml version="1.0" encoding="UTF-8" standalone="no"?>
<svg
   version="1.0"
   width="3777.8706pt"
   height="532.55768pt"
   viewBox="0 0 3777.8706 532.55768"
   preserveAspectRatio="xMidYMid"
   id="svg7"
   sodipodi:docname="cohezion_logo_fixed.svg"
   inkscape:version="1.3.2 (091e20e, 2023-11-25, custom)"
   xmlns:inkscape="http://www.inkscape.org/namespaces/inkscape"
   xmlns:sodipodi="http://sodipodi.sourceforge.net/DTD/sodipodi-0.dtd"
   xmlns:xlink="http://www.w3.org/1999/xlink"
   xmlns="http://www.w3.org/2000/svg"
   xmlns:svg="http://www.w3.org/2000/svg">
  <defs
     id="defs7">
    <linearGradient
       id="linearGradient7"
       inkscape:collect="always">
      <stop
         style="stop-color:#b500fa;stop-opacity:1;"
         offset="0"
         id="stop7" />
      <stop
         style="stop-color:#872bff;stop-opacity:1;"
         offset="1"
         id="stop8" />
    </linearGradient>
    <linearGradient
       inkscape:collect="always"
       xlink:href="#linearGradient7"
       id="linearGradient8"
       x1="20340"
       y1="5585"
       x2="30540"
       y2="5585"
       gradientUnits="userSpaceOnUse" />
  </defs>
  <sodipodi:namedview
     id="namedview7"
     pagecolor="#ffffff"
     bordercolor="#000000"
     borderopacity="0.25"
     inkscape:showpageshadow="2"
     inkscape:pageopacity="0.0"
     inkscape:pagecheckerboard="0"
     inkscape:deskcolor="#d1d1d1"
     inkscape:document-units="pt"
     inkscape:zoom="0.18745833"
     inkscape:cx="2648.5886"
     inkscape:cy="1677.7062"
     inkscape:window-width="2058"
     inkscape:window-height="1237"
     inkscape:window-x="1356"
     inkscape:window-y="83"
     inkscape:window-maximized="0"
     inkscape:current-layer="svg7" />
  <metadata
     id="metadata1">
Created by potrace 1.16, written by Peter Selinger 2001-2019
</metadata>
  <g
     transform="matrix(0.1,0,0,-0.1,-361.12947,824.69621)"
     fill="#000000"
     stroke="none"
     id="g7">
    <path
       d="m 6005,8240 c -679,-61 -1251,-309 -1670,-725 -415,-411 -658,-971 -716,-1644 -16,-196 -6,-582 20,-761 86,-585 300,-1048 656,-1419 398,-415 909,-658 1570,-747 185,-25 647,-25 830,0 365,50 628,128 920,271 636,312 1082,869 1260,1575 28,111 65,311 65,352 v 28 h -370 c -288,0 -371,-3 -374,-12 -2,-7 -15,-74 -29,-148 -36,-186 -85,-329 -172,-505 -166,-333 -399,-577 -726,-758 -174,-96 -447,-182 -676,-212 -138,-19 -428,-21 -558,-5 -540,65 -967,300 -1266,695 -149,196 -276,475 -339,745 -127,548 -70,1191 147,1650 238,505 671,851 1223,979 228,53 566,68 800,36 735,-102 1281,-544 1508,-1221 27,-81 76,-281 84,-344 l 3,-25 373,-3 372,-2 v 29 c 0,53 -49,295 -84,417 -235,818 -853,1416 -1705,1650 -140,38 -336,77 -481,94 -126,15 -540,21 -665,10 z"
       id="path1" />
    <path
       d="m 11755,8244 c -291,-28 -409,-47 -595,-94 -938,-238 -1590,-880 -1820,-1790 -69,-273 -96,-539 -87,-869 9,-343 48,-583 142,-869 118,-356 295,-654 543,-913 471,-492 1140,-762 1947,-786 858,-25 1609,241 2118,751 410,409 647,950 708,1609 15,166 6,604 -15,747 -67,444 -195,793 -404,1106 -412,614 -1047,981 -1883,1089 -117,15 -561,28 -654,19 z m 500,-605 c 274,-29 550,-116 771,-241 523,-299 838,-807 925,-1493 17,-129 17,-511 0,-640 -126,-990 -741,-1620 -1696,-1735 -136,-17 -420,-14 -570,5 -723,93 -1279,521 -1528,1175 -105,275 -150,540 -150,875 0,206 10,325 44,503 145,756 639,1302 1351,1491 266,71 559,92 853,60 z"
       id="path2" />
    <path
       d="m 33380,8244 c -365,-32 -666,-97 -928,-200 -766,-303 -1278,-883 -1482,-1680 -72,-279 -84,-392 -85,-774 0,-358 7,-442 60,-685 89,-409 265,-781 507,-1070 416,-498 998,-796 1743,-891 193,-25 653,-25 840,-1 545,73 980,239 1354,520 117,87 310,273 398,382 217,269 387,619 477,981 93,374 112,840 50,1259 -90,612 -375,1150 -807,1521 -397,341 -889,548 -1477,620 -118,14 -552,26 -650,18 z m 433,-599 c 228,-13 530,-92 738,-194 478,-233 814,-651 958,-1191 114,-428 114,-922 0,-1350 -243,-912 -1020,-1443 -2034,-1389 -908,48 -1584,612 -1779,1482 -50,221 -59,314 -59,582 0,268 9,361 59,582 194,866 867,1430 1769,1482 72,5 157,7 190,5 33,-2 104,-6 158,-9 z"
       id="path3" />
    <path
       d="M 29790,5975 V 3780 h 370 370 v 2195 2195 h -370 -370 z"
       id="path4" />
    <path
       d="M 15110,5585 V 3020 h 375 375 v 1170 1170 h 1625 1625 V 4190 3020 h 370 370 v 2565 2565 h -370 -370 V 7045 5940 h -1625 -1625 v 1105 1105 h -375 -375 z"
       id="path5" />
    <path
       d="M 20340,5585 V 3020 h 2100 2100 v 290 290 h -1725 -1725 v 880 880 h 1240 1240 v 290 290 h -1240 -1240 v 809 808 l 3635,8 c 2000,4 3638,5 3641,2 3,-3 -798,-913 -1780,-2023 L 24800,3525 v -252 -253 h 2870 2870 v 290 290 l -2369,2 -2368,3 1783,2015 1783,2015 1,258 v 257 h -4515 -4515 z"
       id="path6"
       style="fill:url(#linearGradient8)" />
    <path
       d="M 36740,5585 V 3020 h 335 335 v 438 c 0,240 -5,1188 -11,2105 -6,918 -9,1670 -7,1672 2,2 338,-452 748,-1008 409,-557 1111,-1506 1560,-2109 l 815,-1098 h 437 438 v 2565 2565 h -337 -336 l 6,-1632 c 4,-898 10,-1853 13,-2123 l 7,-490 -741,1010 c -408,556 -1114,1511 -1569,2123 l -827,1112 h -433 -433 z"
       id="path7" />
  </g>
</svg>
